<svg width="32" height="32" viewBox="0 0 32 32" fill="none" xmlns="http://www.w3.org/2000/svg">
<path d="M29 16C29.0022 17.7123 28.665 19.4081 28.008 20.9893C27.351 22.5705 26.3871 24.0059 25.1721 25.2124C23.9671 26.4154 22.5368 27.369 20.963 28.0189C19.3892 28.6688 17.7027 29.0022 16 29C8.82011 29 3.00001 23.1799 3.00001 16C2.99547 12.6667 4.27588 9.45981 6.57501 7.04626C7.78813 5.76615 9.2497 4.74704 10.8703 4.05131C12.4909 3.35557 14.2364 2.99784 16 3.00001C17.7027 2.99781 19.3892 3.33117 20.963 3.98106C22.5368 4.63095 23.9671 5.58462 25.1721 6.78756C26.3871 7.9941 27.351 9.42946 28.008 11.0107C28.665 12.5919 29.0022 14.2877 29 16Z" stroke="black" stroke-width="1.66667" stroke-linecap="round" stroke-linejoin="round"/>
<path d="M28.9996 16.0002C27.1029 16.0002 21.8704 15.2852 17.1871 17.3412C12.0996 19.5752 8.41605 23.041 6.81055 25.1957" stroke="black" stroke-width="1.66667" stroke-linecap="round" stroke-linejoin="round"/>
<path d="M11.125 3.94531C13.1595 5.82316 17.599 10.6039 19.25 15.3502C20.901 20.0965 21.512 25.9322 21.889 27.5929" stroke="black" stroke-width="1.66667" stroke-linecap="round" stroke-linejoin="round"/>
<path d="M3.10059 14.3751C5.55628 14.5233 12.0569 14.6565 16.2169 12.8801C20.3769 11.1036 23.9565 7.83607 25.1843 6.79932M3.97549 20.9485C5.12099 23.7213 7.18694 26.0148 9.82548 27.4426" stroke="black" stroke-width="1.66667" stroke-linecap="round" stroke-linejoin="round"/>
<path d="M3.00001 16C2.99547 12.6666 4.27588 9.45981 6.57501 7.04626C7.78813 5.76615 9.2497 4.74704 10.8703 4.05131C12.4909 3.35557 14.2364 2.99784 16 3.00001M21.2 4.08161C22.6805 4.72936 24.0274 5.64696 25.1721 6.78756C26.3871 7.9941 27.351 9.42946 28.008 11.0107C28.665 12.5919 29.0022 14.2877 29 16C29 17.6003 28.7107 19.1336 28.181 20.55M16 29C17.7027 29.0022 19.3892 28.6688 20.963 28.0189C22.5368 27.369 23.9671 26.4154 25.1721 25.2124" stroke="black" stroke-width="1.66667" stroke-linecap="round" stroke-linejoin="round"/>
</svg>
