<svg width="33" height="32" viewBox="0 0 33 32" fill="none" xmlns="http://www.w3.org/2000/svg">
<path d="M17.8367 3.0016C18.7853 2.99796 19.7339 3.00749 20.6823 3.0302L20.9345 3.0393C21.2256 3.0497 21.5129 3.0627 21.86 3.0783C23.2432 3.14329 24.1869 3.36169 25.015 3.68278C25.873 4.01297 26.5958 4.46015 27.3185 5.18293C27.9794 5.83239 28.4909 6.61801 28.8174 7.48515C29.1385 8.31322 29.3569 9.25829 29.4219 10.6414C29.4375 10.9872 29.4505 11.2758 29.4609 11.567L29.4687 11.8192C29.4918 12.7671 29.5017 13.7153 29.4986 14.6635L29.4999 15.6333V17.3362C29.5031 18.2848 29.4931 19.2335 29.47 20.1818L29.4622 20.434C29.4518 20.7252 29.4388 21.0125 29.4232 21.3596C29.3582 22.7427 29.1372 23.6865 28.8174 24.5146C28.4919 25.3826 27.9803 26.1689 27.3185 26.8181C26.6685 27.4789 25.8825 27.9903 25.015 28.3169C24.1869 28.638 23.2432 28.8564 21.86 28.9214C21.5129 28.937 21.2256 28.95 20.9345 28.9604L20.6823 28.9682C19.7339 28.9913 18.7853 29.0013 17.8367 28.9981L16.8669 28.9994H15.1653C14.2166 29.0026 13.268 28.9927 12.3196 28.9695L12.0675 28.9617C11.7589 28.9505 11.4503 28.9375 11.1419 28.9227C9.75874 28.8577 8.81497 28.6367 7.9856 28.3169C7.11812 27.9911 6.33236 27.4795 5.68338 26.8181C5.02176 26.1685 4.50981 25.3824 4.18323 24.5146C3.86214 23.6865 3.64375 22.7427 3.57875 21.3596C3.56427 21.0511 3.55127 20.7426 3.53975 20.434L3.53325 20.1818C3.50928 19.2335 3.49845 18.2849 3.50075 17.3362V14.6635C3.49712 13.7153 3.50666 12.7671 3.52935 11.8192L3.53845 11.567C3.54885 11.2758 3.56185 10.9872 3.57745 10.6414C3.64245 9.25699 3.86084 8.31452 4.18193 7.48515C4.5087 6.61758 5.02165 5.83218 5.68468 5.18423C6.33322 4.52223 7.11848 4.00981 7.9856 3.68278C8.81497 3.36169 9.75744 3.14329 11.1419 3.0783L12.0675 3.0393L12.3196 3.0328C13.2676 3.00884 14.2157 2.99801 15.164 3.0003L17.8367 3.0016ZM16.5003 9.50008C14.7765 9.50008 13.1232 10.1849 11.9043 11.4038C10.6853 12.6228 10.0005 14.276 10.0005 15.9999C10.0005 17.7237 10.6853 19.3769 11.9043 20.5959C13.1232 21.8148 14.7765 22.4996 16.5003 22.4996C18.2242 22.4996 19.8774 21.8148 21.0963 20.5959C22.3153 19.3769 23.0001 17.7237 23.0001 15.9999C23.0001 14.276 22.3153 12.6228 21.0963 11.4038C19.8774 10.1849 18.2242 9.50008 16.5003 9.50008ZM16.5003 12.1C17.0124 12.0999 17.5196 12.2007 17.9928 12.3966C18.466 12.5925 18.8959 12.8797 19.2581 13.2418C19.6203 13.6039 19.9076 14.0337 20.1037 14.5068C20.2998 14.98 20.4007 15.4871 20.4008 15.9992C20.4009 16.5113 20.3001 17.0185 20.1042 17.4917C19.9083 17.9649 19.6211 18.3948 19.259 18.757C18.897 19.1192 18.4671 19.4066 17.994 19.6026C17.5209 19.7987 17.0137 19.8996 16.5016 19.8997C15.4673 19.8997 14.4754 19.4888 13.744 18.7575C13.0126 18.0261 12.6017 17.0342 12.6017 15.9999C12.6017 14.9655 13.0126 13.9736 13.744 13.2422C14.4754 12.5109 15.4673 12.1 16.5016 12.1M23.3264 7.55014C22.907 7.56693 22.5104 7.74533 22.2196 8.04799C21.9288 8.35065 21.7664 8.75408 21.7664 9.17379C21.7664 9.5935 21.9288 9.99693 22.2196 10.2996C22.5104 10.6022 22.907 10.7806 23.3264 10.7974C23.7573 10.7974 24.1706 10.6262 24.4754 10.3215C24.7801 10.0168 24.9513 9.60345 24.9513 9.17249C24.9513 8.74153 24.7801 8.32822 24.4754 8.02348C24.1706 7.71874 23.7573 7.54755 23.3264 7.54755" fill="black"/>
</svg>
